<svg width="18" height="61" viewBox="0 0 18 61" fill="none" xmlns="http://www.w3.org/2000/svg">
<path d="M8.46291 60.1491C8.68094 60.3649 8.97662 60.486 9.28491 60.486C9.5932 60.486 9.88888 60.3649 10.1069 60.1491L17.506 52.8266C17.7178 52.6095 17.835 52.3189 17.8324 52.0172C17.8297 51.7155 17.7074 51.4269 17.4919 51.2136C17.2763 51.0002 16.9847 50.8792 16.6799 50.8766C16.375 50.874 16.0813 50.99 15.862 51.1996L9.28491 57.7087L2.70778 51.1996C2.48851 50.99 2.19482 50.874 1.88998 50.8766C1.58513 50.8792 1.29352 51.0002 1.07796 51.2136C0.862393 51.4269 0.74012 51.7155 0.737471 52.0172C0.734822 52.3189 0.85201 52.6095 1.0638 52.8266L8.46291 60.1491ZM8.12226 0.653633V59.3357H10.4476V0.653633H8.12226Z" fill="white"/>
</svg>
